<?xml version="1.0" encoding="iso-8859-1"?>
<!-- Generator: Adobe Illustrator 19.0.0, SVG Export Plug-In . SVG Version: 6.00 Build 0)  -->
<svg version="1.1" id="Capa_1" xmlns="http://www.w3.org/2000/svg" xmlns:xlink="http://www.w3.org/1999/xlink" x="0px" y="0px"
	 viewBox="0 0 511.734 511.734" style="enable-background:new 0 0 511.734 511.734;" xml:space="preserve">
<path style="fill:#2287FF;" d="M207.891,355.815c4.396,0,7.996,3.6,7.996,7.995c0,4.396-3.6,7.996-7.996,7.996
	s-7.996-3.6-7.996-7.996C199.896,359.415,203.495,355.815,207.891,355.815z"/>
<path style="fill:#FFFFFF;" d="M295.846,347.819c-8.792,0-15.991,7.199-15.991,15.991c0,8.793,7.199,15.992,15.991,15.992
	c8.793,0,15.992-7.199,15.992-15.992C311.838,355.018,304.638,347.819,295.846,347.819z"/>
<path style="fill:#D7E9FF;" d="M327.83,395.795H183.904v-63.967H327.83V395.795z M207.891,371.806c4.396,0,7.996-3.6,7.996-7.996
	s-3.6-7.995-7.996-7.995s-7.996,3.6-7.996,7.995C199.896,368.207,203.495,371.806,207.891,371.806z M295.846,347.819
	c-8.792,0-15.991,7.199-15.991,15.991c0,8.793,7.199,15.992,15.991,15.992c8.793,0,15.992-7.199,15.992-15.992
	C311.838,355.018,304.638,347.819,295.846,347.819z"/>
<rect x="135.927" y="275.857" style="fill:#5C9EFF;" width="239.87" height="23.987"/>
<g>
	<path style="fill:#94C1FF;" d="M375.805,299.844V499.74h-15.992H151.921h-15.992V299.844H375.805z M327.83,395.795v-63.967H183.904
		v63.967H327.83z"/>
	<path style="fill:#94C1FF;" d="M255.867,227.882c4.396,0,7.996,3.6,7.996,7.996s-3.601,7.996-7.996,7.996
		c-4.396,0-7.996-3.6-7.996-7.996S251.471,227.882,255.867,227.882z"/>
</g>
<polygon style="fill:#D7E9FF;" points="375.805,275.856 135.929,275.856 135.929,267.861 159.917,243.873 223.884,243.873 
	231.879,243.873 255.867,243.873 351.817,243.873 375.805,267.861 "/>
<path style="fill:#94C1FF;" d="M247.871,235.877c0,4.396,3.6,7.996,7.996,7.996h-23.988h-7.996h-63.966l15.991-95.95h159.917
	l15.992,95.95h-95.95c4.396,0,7.996-3.6,7.996-7.996s-3.601-7.996-7.996-7.996C251.471,227.882,247.871,231.481,247.871,235.877z"/>
<g>
	<polygon style="fill:#2287FF;" points="375.805,75.961 375.805,267.861 351.817,243.873 335.825,147.923 371.806,75.961 	"/>
	<polygon style="fill:#2287FF;" points="139.927,75.961 175.908,147.923 159.917,243.873 135.929,267.861 135.929,75.961 	"/>
	<polygon style="fill:#2287FF;" points="371.806,75.961 335.825,147.923 175.908,147.923 139.927,75.961 	"/>
</g>
<path style="fill:#D7E9FF;" d="M243.873,51.973c-3.678,4.876-9.437,7.996-15.992,7.996c-11.033,0-19.99-8.956-19.99-19.989
	s8.957-19.99,19.99-19.99h55.971c11.033,0,19.989,8.957,19.989,19.99s-8.956,19.989-19.989,19.989
	c-6.56,0-12.314-3.119-15.992-7.996H243.873z"/>
<g>
	<path style="fill:#94C1FF;" d="M371.806,75.961H139.927h-3.998V3.998h239.875v71.963C375.804,75.961,371.806,75.961,371.806,75.961
		z M303.842,39.979c0-11.033-8.956-19.99-19.989-19.99h-55.971c-11.033,0-19.99,8.957-19.99,19.99s8.957,19.989,19.99,19.989
		c6.555,0,12.314-3.119,15.992-7.996h23.987c3.678,4.876,9.433,7.996,15.992,7.996C294.886,59.969,303.842,51.013,303.842,39.979z"
		/>
	<rect x="183.907" y="259.867" style="fill:#94C1FF;" width="23.987" height="15.991"/>
	<rect x="303.847" y="259.867" style="fill:#94C1FF;" width="23.988" height="15.991"/>
	<path style="fill:#94C1FF;" d="M255.867,259.865c-4.416,0-7.996,3.576-7.996,7.996v7.995h15.992v-7.995
		C263.863,263.441,260.282,259.865,255.867,259.865z"/>
</g>
<rect x="135.927" y="3.998" style="fill:#D7E9FF;" width="7.996" height="71.963"/>
<rect x="135.927" y="275.857" style="fill:#94C1FF;" width="7.996" height="23.987"/>
<rect x="135.927" y="299.847" style="fill:#D7E9FF;" width="7.996" height="199.9"/>
<rect x="367.807" y="275.857" style="fill:#2287FF;" width="7.996" height="23.987"/>
<g>
	<rect x="367.807" y="299.847" style="fill:#5C9EFF;" width="7.996" height="199.9"/>
	<rect x="367.807" y="3.998" style="fill:#5C9EFF;" width="7.996" height="71.963"/>
</g>
<g>
	<path style="fill:#D7E9FF;" d="M245.161,147.923l-25.709,95.95h4.432h7.996h20.685l0.176-0.647
		c-2.854-1.227-4.869-4.061-4.869-7.348c0-4.396,3.6-7.996,7.996-7.996c0.328,0,0.613,0.148,0.933,0.188l21.478-80.146
		L245.161,147.923L245.161,147.923z"/>
	<path style="fill:#D7E9FF;" d="M294.831,147.923h-8.276l-23.07,86.096c0.152,0.609,0.379,1.203,0.379,1.858
		c0,2.218-0.926,4.232-2.401,5.685l-0.621,2.311h8.277L294.831,147.923z"/>
</g>
<polygon style="fill:#5C9EFF;" points="343.821,131.931 167.912,131.931 135.929,267.861 159.917,243.873 175.908,147.923 
	335.825,147.923 351.817,243.873 375.805,267.861 "/>
<g>
	<path style="fill:#116FFF;" d="M143.925,79.958h223.884c2.21,0,3.998-1.788,3.998-3.998s-1.788-3.998-3.998-3.998H143.925
		c-2.209,0-3.998,1.788-3.998,3.998S141.715,79.958,143.925,79.958z"/>
	<path style="fill:#116FFF;" d="M303.842,271.859h-39.979h-15.992h-39.979h-23.987H135.93c-2.209,0-3.998,1.787-3.998,3.997v23.987
		c0,2.21,1.788,3.998,3.998,3.998h239.875c2.21,0,3.998-1.788,3.998-3.998v-23.987c0-2.21-1.788-3.997-3.998-3.997H327.83H303.842z
		 M371.806,295.846H139.927v-15.992h231.879V295.846z"/>
	<path style="fill:#116FFF;" d="M379.803,267.861V3.998c0-2.21-1.788-3.998-3.998-3.998H135.929c-2.209,0-3.998,1.788-3.998,3.998
		v263.863c0,2.209,1.788,3.998,3.998,3.998s3.998-1.789,3.998-3.998v-7.996V75.961V7.996h231.879v67.965v183.904v7.996
		c0,2.209,1.788,3.998,3.998,3.998S379.803,270.07,379.803,267.861z"/>
	<path style="fill:#116FFF;" d="M371.806,307.84v187.902H139.927V307.84c0-2.209-1.788-3.998-3.998-3.998
		c-2.209,0-3.998,1.789-3.998,3.998v191.9c0,2.21,1.788,3.998,3.998,3.998h11.994v3.998c0,2.21,1.788,3.998,3.998,3.998
		s3.998-1.788,3.998-3.998v-3.998h199.896v3.998c0,2.21,1.789,3.998,3.998,3.998c2.21,0,3.998-1.788,3.998-3.998v-3.998h11.994
		c2.21,0,3.998-1.788,3.998-3.998v-191.9c0-2.209-1.788-3.998-3.998-3.998S371.806,305.631,371.806,307.84z"/>
	<path style="fill:#116FFF;" d="M251.869,267.861c0-2.202,1.792-3.998,3.998-3.998c2.205,0,3.998,1.796,3.998,3.998
		c0,2.209,1.788,3.998,3.998,3.998c2.209,0,3.997-1.789,3.997-3.998c0-5.205-3.357-9.601-7.995-11.256v-9.472
		c4.638-1.655,7.995-6.051,7.995-11.256c0-6.614-5.38-11.994-11.993-11.994c-6.614,0-11.994,5.38-11.994,11.994
		c0,5.205,3.354,9.601,7.996,11.256v9.472c-4.643,1.655-7.996,6.051-7.996,11.256c0,2.209,1.788,3.998,3.998,3.998
		S251.869,270.07,251.869,267.861z M255.867,231.88c2.205,0,3.998,1.792,3.998,3.998s-1.793,3.998-3.998,3.998
		c-2.206,0-3.998-1.792-3.998-3.998C251.869,233.672,253.661,231.88,255.867,231.88z"/>
	<path style="fill:#116FFF;" d="M187.902,267.861v-3.998h15.992v3.998c0,2.209,1.788,3.998,3.998,3.998s3.998-1.789,3.998-3.998
		v-7.996c0-2.21-1.788-3.998-3.998-3.998h-23.987c-2.21,0-3.998,1.788-3.998,3.998v7.996c0,2.209,1.788,3.998,3.998,3.998
		S187.902,270.07,187.902,267.861z"/>
	<path style="fill:#116FFF;" d="M307.84,267.861v-3.998h15.992v3.998c0,2.209,1.787,3.998,3.998,3.998
		c2.209,0,3.997-1.789,3.997-3.998v-7.996c0-2.21-1.788-3.998-3.997-3.998h-23.988c-2.21,0-3.998,1.788-3.998,3.998v7.996
		c0,2.209,1.788,3.998,3.998,3.998S307.84,270.07,307.84,267.861z"/>
	<path style="fill:#116FFF;" d="M143.925,263.863c1.023,0,2.046-0.391,2.827-1.172l14.82-14.82h70.307
		c2.209,0,3.998-1.788,3.998-3.998c0-2.209-1.788-3.998-3.998-3.998h-67.242l14.657-87.955h153.143l14.664,87.955h-67.246
		c-2.21,0-3.998,1.788-3.998,3.998s1.788,3.998,3.998,3.998h70.308l14.82,14.82c0.78,0.781,1.804,1.172,2.826,1.172
		c1.023,0,2.046-0.391,2.826-1.172c0.781-0.78,1.172-1.804,1.172-2.826c0-1.023-0.391-2.046-1.172-2.827l-15.085-15.086
		l-15.57-93.404l31.405-62.803c0.984-1.976,0.188-4.376-1.788-5.364c-1.976-0.976-4.372-0.191-5.364,1.788l-30.875,61.757H178.38
		l-30.878-61.757c-0.996-1.979-3.389-2.764-5.365-1.788c-1.976,0.988-2.775,3.389-1.788,5.364l31.402,62.803l-15.566,93.404
		l-15.086,15.086c-0.781,0.781-1.171,1.804-1.171,2.827c0,1.022,0.39,2.046,1.171,2.826
		C141.879,263.472,142.902,263.863,143.925,263.863z"/>
	<path style="fill:#116FFF;" d="M183.904,399.792H327.83c2.209,0,3.997-1.788,3.997-3.997v-63.967c0-2.21-1.788-3.998-3.997-3.998
		H183.904c-2.21,0-3.998,1.788-3.998,3.998v63.967C179.906,398.004,181.694,399.792,183.904,399.792z M187.902,335.826h135.93
		v55.971h-135.93V335.826z"/>
	<path style="fill:#116FFF;" d="M295.846,343.821c-11.025,0-19.989,8.964-19.989,19.989c0,11.026,8.964,19.99,19.989,19.99
		s19.99-8.964,19.99-19.99C315.836,352.785,306.871,343.821,295.846,343.821z M283.852,363.81c0-5.208,3.357-9.604,7.995-11.26
		v22.52C287.21,373.416,283.852,369.019,283.852,363.81z M299.844,375.07v-22.52c4.639,1.656,7.996,6.052,7.996,11.26
		C307.84,369.019,304.482,373.416,299.844,375.07z"/>
	<path style="fill:#116FFF;" d="M207.891,351.817c-6.613,0-11.993,5.38-11.993,11.993c0,5.209,3.354,9.605,7.996,11.26v4.732
		c0,2.21,1.788,3.998,3.998,3.998s3.998-1.788,3.998-3.998v-4.732c4.643-1.654,7.996-6.051,7.996-11.26
		C219.886,357.197,214.506,351.817,207.891,351.817z M207.891,367.808c-2.206,0-3.998-1.796-3.998-3.998
		c0-2.201,1.792-3.997,3.998-3.997s3.998,1.796,3.998,3.997C211.889,366.013,210.097,367.808,207.891,367.808z"/>
	<path style="fill:#116FFF;" d="M227.881,63.967c6.872,0,13.134-2.967,17.67-7.996h20.622c4.545,5.029,10.814,7.996,17.687,7.996
		c13.22,0,23.979-10.76,23.979-23.987s-10.76-23.987-23.979-23.987h-55.979c-13.227,0-23.987,10.76-23.987,23.987
		S214.654,63.967,227.881,63.967z M227.881,23.988h55.979c8.815,0,15.983,7.172,15.983,15.992c0,8.819-7.168,15.991-15.983,15.991
		c-5.075,0-9.737-2.327-12.798-6.387c-0.039-0.051-0.094-0.074-0.141-0.121c-0.234-0.285-0.508-0.512-0.812-0.723
		c-0.125-0.09-0.25-0.188-0.391-0.262c-0.289-0.152-0.593-0.242-0.929-0.32c-0.195-0.047-0.367-0.098-0.57-0.113
		c-0.109-0.012-0.219-0.07-0.336-0.07h-24.022c-0.105,0-0.191,0.05-0.293,0.058c-0.25,0.02-0.484,0.082-0.726,0.148
		c-0.27,0.07-0.531,0.141-0.773,0.265c-0.195,0.098-0.359,0.23-0.535,0.359c-0.25,0.188-0.48,0.371-0.683,0.609
		c-0.055,0.062-0.129,0.094-0.18,0.16c-3.049,4.064-7.711,6.395-12.791,6.395c-8.82,0-15.992-7.172-15.992-15.991
		C211.889,31.159,219.061,23.988,227.881,23.988z"/>
	<path style="fill:#116FFF;" d="M219.886,43.977h3.998v3.998c0,2.209,1.788,3.998,3.998,3.998s3.998-1.788,3.998-3.998v-3.998h3.998
		c2.21,0,3.998-1.788,3.998-3.998s-1.788-3.998-3.998-3.998h-3.998v-3.998c0-2.21-1.788-3.998-3.998-3.998
		c-2.209,0-3.998,1.788-3.998,3.998v3.998h-3.998c-2.21,0-3.998,1.788-3.998,3.998S217.676,43.977,219.886,43.977z"/>
	<path style="fill:#116FFF;" d="M288.099,39.979c2.203,0,3.998-1.788,3.998-3.998s-1.795-3.998-3.998-3.998h-0.078
		c-2.217,0-3.966,1.788-3.966,3.998S285.89,39.979,288.099,39.979z"/>
	<path style="fill:#116FFF;" d="M280.104,47.975c2.202,0,3.998-1.789,3.998-3.998c0-2.21-1.796-3.998-3.998-3.998h-0.078
		c-2.218,0-3.967,1.788-3.967,3.998C276.059,46.187,277.894,47.975,280.104,47.975z"/>
	<path style="fill:#116FFF;" d="M151.921,487.746h207.892c2.21,0,3.998-1.787,3.998-3.997s-1.788-3.998-3.998-3.998H151.921
		c-2.21,0-3.998,1.788-3.998,3.998S149.711,487.746,151.921,487.746z"/>
</g>
<g>
</g>
<g>
</g>
<g>
</g>
<g>
</g>
<g>
</g>
<g>
</g>
<g>
</g>
<g>
</g>
<g>
</g>
<g>
</g>
<g>
</g>
<g>
</g>
<g>
</g>
<g>
</g>
<g>
</g>
</svg>
